<?xml version="1.0" encoding="UTF-8"?>
<!DOCTYPE svg PUBLIC "-//W3C//DTD SVG 1.1//EN" "http://www.w3.org/Graphics/SVG/1.1/DTD/svg11.dtd">
<!-- Creator: CorelDRAW 2018 (64-Bit) -->
<svg xmlns="http://www.w3.org/2000/svg" xml:space="preserve" width="85.5758mm" height="78.6176mm" version="1.1" style="shape-rendering:geometricPrecision; text-rendering:geometricPrecision; image-rendering:optimizeQuality; fill-rule:evenodd; clip-rule:evenodd"
viewBox="0 0 3485.82 3202.39"
 xmlns:xlink="http://www.w3.org/1999/xlink">
 <defs>
  <style type="text/css">
   <![CDATA[
    .fil0 {fill:#4C3A2C}
    .fil1 {fill:#614E41}
   ]]>
  </style>
 </defs>
 <g id="Слой_x0020_1">
  <metadata id="CorelCorpID_0Corel-Layer"/>
  <g id="el.cdr">
   <path class="fil0" d="M1612.08 3092.43c-340.56,-271.55 -690.17,-529.19 -1031.6,-797.98l-18.53 -1186.2 455.55 -367.16 1441.79 1140.32 -51.15 -763.01 -1398.67 -1118.4c-336.29,284.26 -671.32,569.9 -1006.8,855.13l-2.67 1692.06 604 478.2c66.49,60.59 129.74,57.59 209.16,58.91l798.92 8.13z"/>
   <path class="fil1" d="M2925.69 2108.04l-435.17 367.18 -1465.91 -1142.7 7.76 713.2c449.72,342.23 1050.19,814.19 1433.27,1156.66l1015.26 -838.41 4.92 -1642.44 -562.22 -500.86c-78.64,-57.49 -51.87,-86.05 -291.91,-89.36l-754.87 0.2 1048.91 836.75 -0.04 1139.78z"/>
  </g>
 </g>
</svg>
